<?xml version="1.0" encoding="UTF-8" standalone="no"?>
<svg
   xmlns:dc="http://purl.org/dc/elements/1.1/"
   xmlns:cc="http://creativecommons.org/ns#"
   xmlns:rdf="http://www.w3.org/1999/02/22-rdf-syntax-ns#"
   xmlns:svg="http://www.w3.org/2000/svg"
   xmlns="http://www.w3.org/2000/svg"
   width="1280"
   height="632.29083"
   viewBox="0 0 1280 632.29083"
   version="1.1"
   xml:space="preserve"
   style="clip-rule:evenodd;fill-rule:evenodd;stroke-linecap:round;stroke-linejoin:round;stroke-miterlimit:1.5"
   id="svg42"><metadata
     id="metadata48"><rdf:RDF><cc:Work
         rdf:about=""><dc:format>image/svg+xml</dc:format><dc:type
           rdf:resource="http://purl.org/dc/dcmitype/StillImage" /><dc:title></dc:title></cc:Work></rdf:RDF></metadata><defs
     id="defs46" /><g
     id="g81"><text
       x="839.41901"
       y="238.479"
       style="font-weight:900;font-size:12px;font-family:Arial-Black, Arial, sans-serif"
       id="text4"
       transform="matrix(19.530935,0,0,17.419649,-16412.033,-3762.707)">K</text>
<text
       transform="matrix(19.530935,0,0,17.419649,-16412.033,-3762.707)"
       id="text49"
       style="font-weight:900;font-size:12px;font-family:Arial-Black, Arial, sans-serif"
       y="238.479"
       x="848.97198">I</text>
<text
       x="853.19702"
       y="238.479"
       style="font-weight:900;font-size:12px;font-family:Arial-Black, Arial, sans-serif"
       id="text53"
       transform="matrix(19.530935,0,0,17.419649,-16412.033,-3762.707)">N</text>
<text
       transform="matrix(19.530935,0,0,17.419649,-16412.033,-3762.707)"
       id="text57"
       style="font-weight:900;font-size:12px;font-family:Arial-Black, Arial, sans-serif"
       y="238.479"
       x="862.75">G</text>
<text
       x="872.302"
       y="238.479"
       style="font-weight:900;font-size:12px;font-family:Arial-Black, Arial, sans-serif"
       id="text61"
       transform="matrix(19.530935,0,0,17.419649,-16412.033,-3762.707)">S</text>
<text
       transform="matrix(19.530935,0,0,17.419649,-16412.033,-3762.707)"
       id="text65"
       style="font-weight:900;font-size:12px;font-family:Arial-Black, Arial, sans-serif"
       y="238.479"
       x="880.52399">O</text>
<text
       x="882.15399"
       y="238.479"
       style="font-weight:900;font-size:12px;font-family:Arial-Black, Arial, sans-serif"
       id="text8"
       transform="matrix(19.530935,0,0,17.419649,-16257.312,-3762.707)">F</text>
<text
       x="888.40002"
       y="238.479"
       style="font-weight:900;font-size:12px;font-family:Arial-Black, Arial, sans-serif"
       id="text12"
       transform="matrix(19.583974,0,0,17.419649,-16281.807,-3762.707)">T</text>
<path
       d="m 1091.82,26.012 h -70.31 l -39.692,68.42 h 70.312 z"
       style="fill:#a3ccf8;stroke:#000000;stroke-width:0.44px"
       id="path18"
       transform="matrix(3.172972,0,0,3.172972,-2782.1031,-81.837296)" /><path
       d="m 1091.82,26.012 h -70.31 l -39.692,68.42 h 70.312 z"
       style="fill:#a3ccf8;stroke:#000000;stroke-width:0.44px"
       id="path20"
       transform="matrix(3.172972,0,0,3.172972,-3020.7883,331.96269)" /><path
       d="m 1091.82,26.012 h -70.31 l -39.692,68.42 h 70.312 z"
       style="fill:#85b8f9;stroke:#000000;stroke-width:0.44px"
       id="path24"
       transform="matrix(3.172972,0,0,3.172972,-2527.8253,-81.837296)" /><path
       d="m 1091.82,26.012 h -70.31 l -39.692,68.42 h 70.312 z"
       style="fill:#85b8f9;stroke:#000000;stroke-width:0.44px"
       id="path28"
       transform="matrix(3.172972,0,0,3.172972,-2766.5106,331.96269)" /><path
       d="m 1091.82,26.012 h -70.31 l -39.692,68.42 h 70.312 z"
       style="fill:#5c9bea;stroke:#000000;stroke-width:0.44px"
       id="path32"
       transform="matrix(3.172972,0,0,3.172972,-2275.9475,-81.837296)" /><path
       d="m 1091.82,26.012 h -70.31 l -39.692,68.42 h 70.312 z"
       style="fill:#5c9bea;stroke:#000000;stroke-width:0.44px"
       id="path36"
       transform="matrix(3.172972,0,0,3.172972,-2514.6318,331.96269)" /></g></svg>